<?xml version="1.0" encoding="UTF-8"?>
<svg width="1200" height="630" viewBox="0 0 1200 630" xmlns="http://www.w3.org/2000/svg">
  <defs>
    <!-- Background gradient matching particle colors -->
    <linearGradient id="bgGradient" x1="0%" y1="0%" x2="100%" y2="100%">
      <stop offset="0%" style="stop-color:#000000"/>
      <stop offset="50%" style="stop-color:#0a0a15"/>
      <stop offset="100%" style="stop-color:#000000"/>
    </linearGradient>
    
    <!-- Accent gradient using particle colors -->
    <linearGradient id="accentGradient" x1="0%" y1="0%" x2="100%" y2="0%">
      <stop offset="0%" style="stop-color:#60a5fa"/>
      <stop offset="25%" style="stop-color:#34d399"/>
      <stop offset="50%" style="stop-color:#a78bfa"/>
      <stop offset="75%" style="stop-color:#38bdf8"/>
      <stop offset="100%" style="stop-color:#818cf8"/>
    </linearGradient>
    
    <!-- Glow effect -->
    <filter id="glow" x="-50%" y="-50%" width="200%" height="200%">
      <feGaussianBlur stdDeviation="3" result="coloredBlur"/>
      <feMerge>
        <feMergeNode in="coloredBlur"/>
        <feMergeNode in="SourceGraphic"/>
      </feMerge>
    </filter>
  </defs>
  
  <!-- Background -->
  <rect width="1200" height="630" fill="url(#bgGradient)"/>
  
  <!-- Subtle grid pattern -->
  <g opacity="0.05">
    <pattern id="grid" width="40" height="40" patternUnits="userSpaceOnUse">
      <path d="M 40 0 L 0 0 0 40" fill="none" stroke="#60a5fa" stroke-width="0.5"/>
    </pattern>
    <rect width="1200" height="630" fill="url(#grid)"/>
  </g>
  
  <!-- Decorative particles -->
  <g opacity="0.3">
    <circle cx="100" cy="100" r="3" fill="#60a5fa"/>
    <circle cx="200" cy="150" r="2" fill="#34d399"/>
    <circle cx="150" cy="250" r="2.5" fill="#a78bfa"/>
    <circle cx="1050" cy="120" r="3" fill="#38bdf8"/>
    <circle cx="1100" cy="200" r="2" fill="#818cf8"/>
    <circle cx="1000" cy="80" r="2.5" fill="#60a5fa"/>
    <circle cx="100" cy="500" r="2" fill="#34d399"/>
    <circle cx="180" cy="550" r="3" fill="#a78bfa"/>
    <circle cx="1080" cy="480" r="2.5" fill="#38bdf8"/>
    <circle cx="1020" cy="540" r="2" fill="#60a5fa"/>
  </g>
  
  <!-- Eclipse Logo (simplified version) -->
  <g transform="translate(150, 165) scale(0.085)">
    <path d="M3286.565,1017.449l0,1495.781c0,412.772 -335.119,747.891 -747.891,747.891l-1495.781,0c-412.772,0 -747.891,-335.119 -747.891,-747.891l0,-1495.781c0,-412.772 335.119,-747.891 747.891,-747.891l1495.781,0c412.772,0 747.891,335.119 747.891,747.891Z" fill="#0a0a0a" stroke="#1a1a2e" stroke-width="8"/>
    <ellipse cx="1426.291" cy="1765.34" rx="796.223" ry="794.258" fill="#fff"/>
    <path d="M1426.291,971.082c-219.724,132.376 -398.111,442.7 -398.111,794.258c0,351.558 178.388,661.882 398.111,794.258c-439.447,0 -796.223,-355.895 -796.223,-794.258c0,-438.363 356.776,-794.258 796.223,-794.258Z" fill="#000"/>
  </g>
  
  <!-- Company Name -->
  <text x="480" y="280" font-family="Inter, system-ui, sans-serif" font-size="72" font-weight="700" fill="#ffffff">
    Eclipse Softworks
  </text>
  
  <!-- Tagline with gradient -->
  <text x="480" y="340" font-family="Inter, system-ui, sans-serif" font-size="28" font-weight="400" fill="url(#accentGradient)" filter="url(#glow)">
    Build Intelligence
  </text>
  
  <!-- Description -->
  <text x="480" y="400" font-family="Inter, system-ui, sans-serif" font-size="20" fill="#9ca3af">
    AI Solutions • Machine Learning • Custom Software
  </text>
  
  <!-- Bottom accent line -->
  <rect x="480" y="440" width="400" height="3" fill="url(#accentGradient)" rx="1.5"/>
  
  <!-- Location badge -->
  <g transform="translate(480, 480)">
    <rect width="180" height="36" rx="18" fill="rgba(96, 165, 250, 0.1)" stroke="rgba(96, 165, 250, 0.3)" stroke-width="1"/>
    <text x="90" y="24" font-family="Inter, system-ui, sans-serif" font-size="14" fill="#60a5fa" text-anchor="middle">
      🇿🇦 South Africa
    </text>
  </g>
  
  <!-- Website URL -->
  <text x="1050" y="580" font-family="Inter, system-ui, sans-serif" font-size="16" fill="#6b7280" text-anchor="middle">
    eclipse-softworks.com
  </text>
</svg>
