<?xml version="1.0" encoding="UTF-8" standalone="no"?><!DOCTYPE svg PUBLIC "-//W3C//DTD SVG 1.1//EN" "http://www.w3.org/Graphics/SVG/1.1/DTD/svg11.dtd"><svg width="100%" height="100%" viewBox="0 0 3582 3531" version="1.1" xmlns="http://www.w3.org/2000/svg" xmlns:xlink="http://www.w3.org/1999/xlink" xml:space="preserve" xmlns:serif="http://www.serif.com/" style="fill-rule:evenodd;clip-rule:evenodd;stroke-linecap:round;stroke-linejoin:round;stroke-miterlimit:1.5;"><rect id="Artboard5" x="0" y="0" width="3581.567" height="3530.679" style="fill:none;"/><g><g><path d="M3286.565,1017.449l0,1495.781c0,412.772 -335.119,747.891 -747.891,747.891l-1495.781,0c-412.772,0 -747.891,-335.119 -747.891,-747.891l0,-1495.781c0,-412.772 335.119,-747.891 747.891,-747.891l1495.781,0c412.772,0 747.891,335.119 747.891,747.891Z" style="stroke:#000;stroke-width:6.25px;"/><circle cx="1504.617" cy="1765.34" r="625.122" style="fill:#fff;stroke:#fff;stroke-width:6.25px;"/><path d="M1504.617,1140.217c-172.507,104.187 -312.561,348.428 -312.561,625.122c0,276.694 140.054,520.935 312.561,625.122c-345.014,0 -625.122,-280.108 -625.122,-625.122c0,-345.014 280.108,-625.122 625.122,-625.122Z" style="stroke:#fff;stroke-width:6.25px;"/><clipPath id="_clip1"><rect x="1557.406" y="620.673" width="1144.666" height="2289.332"/></clipPath><g clip-path="url(#_clip1)"><path d="M1746.832,1058.392c-124.095,-33.251 -254.757,-33.251 -378.852,0c126.284,-118.581 189.426,-264.487 189.426,-437.719c0,173.231 63.142,319.138 189.426,437.719Zm328.095,189.426c-90.844,-90.844 -204,-156.175 -328.095,-189.426c168.656,-39.552 296.291,-134.34 382.907,-284.362c-86.616,150.023 -104.886,307.952 -54.812,473.789Zm-706.948,1224.469c124.095,33.251 254.757,33.251 378.852,0c-126.284,118.581 -189.426,264.487 -189.426,437.719c0,-173.231 -63.142,-319.138 -189.426,-437.719Zm896.374,-896.374c-33.251,-124.095 -98.582,-237.251 -189.426,-328.095c165.836,50.075 323.766,31.804 473.789,-54.812c-150.023,86.616 -244.81,214.251 -284.362,382.907Zm-517.522,896.374c124.095,-33.251 237.251,-98.582 328.095,-189.426c-50.075,165.836 -31.804,323.766 54.812,473.789c-86.616,-150.023 -214.251,-244.81 -382.907,-284.362Zm517.522,-517.522c33.251,-124.095 33.251,-254.757 -0,-378.852c118.581,126.284 264.487,189.426 437.719,189.426c-173.231,0 -319.138,63.142 -437.719,189.426Zm-189.426,328.095c90.844,-90.844 156.175,-204 189.426,-328.095c39.552,168.656 134.34,296.291 284.362,382.907c-150.023,-86.616 -307.952,-104.886 -473.789,-54.812Z" style="fill:#fff;fill-opacity:0.98;"/><clipPath id="_clip2"><path d="M1746.832,1058.392c-124.095,-33.251 -254.757,-33.251 -378.852,0c126.284,-118.581 189.426,-264.487 189.426,-437.719c0,173.231 63.142,319.138 189.426,437.719Zm328.095,189.426c-90.844,-90.844 -204,-156.175 -328.095,-189.426c168.656,-39.552 296.291,-134.34 382.907,-284.362c-86.616,150.023 -104.886,307.952 -54.812,473.789Zm-706.948,1224.469c124.095,33.251 254.757,33.251 378.852,0c-126.284,118.581 -189.426,264.487 -189.426,437.719c0,-173.231 -63.142,-319.138 -189.426,-437.719Zm896.374,-896.374c-33.251,-124.095 -98.582,-237.251 -189.426,-328.095c165.836,50.075 323.766,31.804 473.789,-54.812c-150.023,86.616 -244.81,214.251 -284.362,382.907Zm-517.522,896.374c124.095,-33.251 237.251,-98.582 328.095,-189.426c-50.075,165.836 -31.804,323.766 54.812,473.789c-86.616,-150.023 -214.251,-244.81 -382.907,-284.362Zm517.522,-517.522c33.251,-124.095 33.251,-254.757 -0,-378.852c118.581,126.284 264.487,189.426 437.719,189.426c-173.231,0 -319.138,63.142 -437.719,189.426Zm-189.426,328.095c90.844,-90.844 156.175,-204 189.426,-328.095c39.552,168.656 134.34,296.291 284.362,382.907c-150.023,-86.616 -307.952,-104.886 -473.789,-54.812Z"/></clipPath><g clip-path="url(#_clip2)"><path d="M1367.98,1058.392c-124.095,33.251 -237.251,98.582 -328.095,189.426c50.075,-165.836 31.804,-323.766 -54.812,-473.789c86.616,150.023 214.251,244.81 382.907,284.362Z" style="fill:#726f36;fill-opacity:0.85;"/><path d="M850.459,1575.914c-39.552,-168.656 -134.34,-296.291 -284.362,-382.907c150.023,86.616 307.952,104.886 473.789,54.812c-90.844,90.844 -156.175,204 -189.426,328.095Z" style="fill:#726f36;fill-opacity:0.85;"/><path d="M850.459,1954.766c-118.581,-126.284 -264.487,-189.426 -437.719,-189.426c173.231,0 319.138,-63.142 437.719,-189.426c-33.251,124.095 -33.251,254.757 0,378.852Z" style="fill:#726f36;fill-opacity:0.85;"/><path d="M1039.885,2282.861c-165.836,-50.075 -323.766,-31.804 -473.789,54.812c150.023,-86.616 244.81,-214.251 284.362,-382.907c33.251,124.095 98.582,237.251 189.426,328.095Z" style="fill:#726f36;fill-opacity:0.85;"/><path d="M1367.98,2472.287c-168.656,39.552 -296.291,134.34 -382.907,284.362c86.616,-150.023 104.886,-307.952 54.812,-473.789c90.844,90.844 204,156.175 328.095,189.426Z" style="fill:#726f36;fill-opacity:0.85;"/></g></g></g></g></svg>