<?xml version="1.0" encoding="UTF-8" standalone="no"?><!DOCTYPE svg PUBLIC "-//W3C//DTD SVG 1.1//EN" "http://www.w3.org/Graphics/SVG/1.1/DTD/svg11.dtd"><svg width="100%" height="100%" viewBox="0 0 3582 3531" version="1.1" xmlns="http://www.w3.org/2000/svg" xmlns:xlink="http://www.w3.org/1999/xlink" xml:space="preserve" xmlns:serif="http://www.serif.com/" style="fill-rule:evenodd;clip-rule:evenodd;stroke-linecap:round;stroke-linejoin:round;stroke-miterlimit:1.5;"><rect id="Artboard5" x="0" y="0" width="3581.567" height="3530.679" style="fill:none;"/><g><g><path d="M3286.565,1017.449l0,1495.781c0,412.772 -335.119,747.891 -747.891,747.891l-1495.781,0c-412.772,0 -747.891,-335.119 -747.891,-747.891l0,-1495.781c0,-412.772 335.119,-747.891 747.891,-747.891l1495.781,0c412.772,0 747.891,335.119 747.891,747.891Z" style="stroke:#000;stroke-width:6.25px;"/><g><ellipse cx="1426.291" cy="1765.34" rx="796.223" ry="794.258" style="fill:#fff;stroke:#fff;stroke-width:6.25px;"/><path d="M1426.291,971.082c-219.724,132.376 -398.111,442.7 -398.111,794.258c0,351.558 178.388,661.882 398.111,794.258c-439.447,0 -796.223,-355.895 -796.223,-794.258c0,-438.363 356.776,-794.258 796.223,-794.258Z" style="stroke:#fff;stroke-width:6.25px;"/><clipPath id="_clip1"><rect x="1493.529" y="310.968" width="1457.969" height="2908.743"/></clipPath><g clip-path="url(#_clip1)"><path d="M1734.803,867.118c-158.061,-42.248 -324.486,-42.248 -482.547,0c160.849,-150.665 241.273,-336.048 241.273,-556.15c0,220.102 80.424,405.485 241.273,556.15Zm417.898,240.678c-115.709,-115.423 -259.837,-198.43 -417.898,-240.678c214.818,-50.254 377.388,-170.687 487.711,-361.301c-110.323,190.614 -133.594,391.273 -69.814,601.979Zm-900.444,1555.766c158.061,42.248 324.486,42.248 482.547,0c-160.849,150.665 -241.273,336.048 -241.273,556.15c0,-220.102 -80.424,-405.485 -241.273,-556.15Zm1141.717,-1138.9c-42.352,-157.671 -125.565,-301.443 -241.273,-416.866c211.227,63.623 412.383,40.409 603.468,-69.642c-191.085,110.051 -311.817,272.22 -362.195,486.508Zm-659.171,1138.9c158.061,-42.248 302.189,-125.255 417.898,-240.678c-63.78,210.706 -40.509,411.365 69.814,601.979c-110.323,-190.614 -272.894,-311.047 -487.711,-361.301Zm659.171,-657.544c42.352,-157.671 42.352,-323.685 -0,-481.356c151.038,160.452 336.879,240.678 557.525,240.678c-220.646,0 -406.488,80.226 -557.525,240.678Zm-241.273,416.866c115.709,-115.423 198.921,-259.195 241.273,-416.866c50.378,214.288 171.109,376.457 362.195,486.508c-191.085,-110.051 -392.241,-133.265 -603.468,-69.642Z" style="fill:#fff;fill-opacity:0.98;"/><clipPath id="_clip2"><path d="M1734.803,867.118c-158.061,-42.248 -324.486,-42.248 -482.547,0c160.849,-150.665 241.273,-336.048 241.273,-556.15c0,220.102 80.424,405.485 241.273,556.15Zm417.898,240.678c-115.709,-115.423 -259.837,-198.43 -417.898,-240.678c214.818,-50.254 377.388,-170.687 487.711,-361.301c-110.323,190.614 -133.594,391.273 -69.814,601.979Zm-900.444,1555.766c158.061,42.248 324.486,42.248 482.547,0c-160.849,150.665 -241.273,336.048 -241.273,556.15c0,-220.102 -80.424,-405.485 -241.273,-556.15Zm1141.717,-1138.9c-42.352,-157.671 -125.565,-301.443 -241.273,-416.866c211.227,63.623 412.383,40.409 603.468,-69.642c-191.085,110.051 -311.817,272.22 -362.195,486.508Zm-659.171,1138.9c158.061,-42.248 302.189,-125.255 417.898,-240.678c-63.78,210.706 -40.509,411.365 69.814,601.979c-110.323,-190.614 -272.894,-311.047 -487.711,-361.301Zm659.171,-657.544c42.352,-157.671 42.352,-323.685 -0,-481.356c151.038,160.452 336.879,240.678 557.525,240.678c-220.646,0 -406.488,80.226 -557.525,240.678Zm-241.273,416.866c115.709,-115.423 198.921,-259.195 241.273,-416.866c50.378,214.288 171.109,376.457 362.195,486.508c-191.085,-110.051 -392.241,-133.265 -603.468,-69.642Z"/></clipPath><g clip-path="url(#_clip2)"><path d="M1252.256,867.118c-158.061,42.248 -302.189,125.255 -417.898,240.678c63.78,-210.706 40.509,-411.365 -69.814,-601.979c110.323,190.614 272.894,311.047 487.711,361.301Z" style="fill:#726f36;fill-opacity:0.85;"/><path d="M593.085,1524.662c-50.378,-214.288 -171.109,-376.457 -362.195,-486.508c191.085,110.051 392.241,133.265 603.468,69.642c-115.709,115.423 -198.921,259.195 -241.273,416.866Z" style="fill:#726f36;fill-opacity:0.85;"/><path d="M593.085,2006.018c-151.038,-160.452 -336.879,-240.678 -557.525,-240.678c220.646,0 406.488,-80.226 557.525,-240.678c-42.352,157.671 -42.352,323.685 0,481.356Z" style="fill:#726f36;fill-opacity:0.85;"/><path d="M834.359,2422.884c-211.227,-63.623 -412.383,-40.409 -603.468,69.642c191.085,-110.051 311.817,-272.22 362.195,-486.508c42.352,157.671 125.565,301.443 241.273,416.866Z" style="fill:#726f36;fill-opacity:0.85;"/><path d="M1252.256,2663.562c-214.818,50.254 -377.388,170.687 -487.711,361.301c110.323,-190.614 133.594,-391.273 69.814,-601.979c115.709,115.423 259.837,198.43 417.898,240.678Z" style="fill:#726f36;fill-opacity:0.85;"/></g></g></g></g></g></svg>